Coordinates
version=1
nRows=6
nColumns=63
inDegrees=yes

Units are S.I. units (second, meters, Newtons, ...)
If the header above contains a line with 'inDegrees', this indicates whether rotational values are in degrees (yes) or radians (no).

endheader
time	pelvis_tilt	pelvis_list	pelvis_rotation	pelvis_tx	pelvis_ty	pelvis_tz	hip_flexion_r	hip_adduction_r	hip_rotation_r	knee_angle_r	knee_angle_r_beta	ankle_angle_r	subtalar_angle_r	mtp_angle_r	hip_flexion_l	hip_adduction_l	hip_rotation_l	knee_angle_l	knee_angle_l_beta	ankle_angle_l	subtalar_angle_l	mtp_angle_l	L5_S1_Flex_Ext	L5_S1_Lat_Bending	L5_S1_axial_rotation	L4_L5_Flex_Ext	L4_L5_Lat_Bending	L4_L5_axial_rotation	L3_L4_Flex_Ext	L3_L4_Lat_Bending	L3_L4_axial_rotation	L2_L3_Flex_Ext	L2_L3_Lat_Bending	L2_L3_axial_rotation	L1_L2_Flex_Ext	L1_L2_Lat_Bending	L1_L2_axial_rotation	L1_T12_Flex_Ext	L1_T12_Lat_Bending	L1_T12_axial_rotation	Abs_r3	Abs_r2	Abs_r1	Abs_t1	Abs_t2	neck_flexion	neck_bending	neck_rotation	arm_flex_r	arm_add_r	arm_rot_r	elbow_flex_r	pro_sup_r	wrist_flex_r	wrist_dev_r	arm_flex_l	arm_add_l	arm_rot_l	elbow_flex_l	pro_sup_l	wrist_flex_l	wrist_dev_l
2.316667	-2.643085	-24.142985	92.808218	0.170133	1.000865	0.205956	39.391199	-4.576311	-1.862106	26.229743	0.457795	43.546881	-0.634040	0.000000	36.233972	6.095847	8.099117	17.279232	0.301579	36.015865	-4.545158	0.000000	0.476195	0.050582	-0.986877	0.884342	0.067274	-1.048556	0.782341	0.122985	-1.048556	0.544243	0.122985	-0.863517	0.442195	0.103147	-0.801837	0.272098	0.078352	-0.740157	3.401412	0.572194	-5.488711	0.000000	0.000000	28.140835	-3.429387	1.331273	13.713437	-9.122184	35.436150	37.284199	82.009918	-11.186899	6.770381	43.358570	-20.237976	35.573246	51.448578	89.141189	-1.760065	13.773892
2.333333	-1.984771	-24.480350	93.189744	0.169120	1.001737	0.205889	38.768154	-4.343695	-3.059062	24.584361	0.429078	42.652019	-0.053706	0.000000	36.162572	5.909073	10.056295	16.580267	0.289380	34.881342	-6.822238	0.000000	0.481498	0.160194	-1.011781	0.894190	0.213058	-1.075017	0.791053	0.389496	-1.075017	0.550304	0.389496	-0.885308	0.447119	0.326668	-0.822072	0.275128	0.248141	-0.758836	3.439294	1.812147	-5.627221	0.000000	0.000000	28.181862	-4.179394	1.659404	13.445207	-9.476730	34.070389	37.625918	84.329895	-11.258017	7.015350	43.484559	-19.926803	35.452977	51.451586	89.169914	-1.821228	12.969436
2.350000	-1.370867	-24.802721	93.565816	0.168154	1.002352	0.205821	38.183370	-4.132212	-4.163237	23.073943	0.402716	41.777141	0.381224	0.000000	36.126432	5.766895	11.992928	15.995938	0.279182	33.816953	-9.137148	0.000000	0.486194	0.261843	-1.019668	0.902911	0.348251	-1.083397	0.798768	0.636644	-1.083397	0.555671	0.636644	-0.892209	0.451480	0.533950	-0.828480	0.277811	0.405594	-0.764751	3.472835	2.962017	-5.671086	0.000000	0.000000	28.222771	-4.979810	1.738459	13.161991	-9.834350	32.852278	37.968779	85.969161	-11.270706	7.172896	43.853507	-19.518868	35.858364	51.131239	89.187613	-2.049972	11.884039
2.366667	-0.858131	-25.117515	93.905783	0.167316	1.002624	0.205824	37.713570	-3.974474	-5.101043	21.800538	0.380491	40.993225	0.692557	0.000000	36.152534	5.699492	13.769940	15.532165	0.271087	32.878073	-11.328426	0.000000	0.490672	0.346848	-1.014225	0.911226	0.461308	-1.077614	0.806125	0.843326	-1.077614	0.560789	0.843326	-0.887447	0.455638	0.707292	-0.824057	0.280370	0.537268	-0.760668	3.504819	3.923614	-5.640813	0.000000	0.000000	28.265952	-5.740579	1.550282	12.893438	-10.136361	31.775348	38.272937	86.964408	-11.261492	7.180701	44.475053	-19.052933	36.789404	50.498472	89.194898	-2.438171	10.640469
2.383333	-0.437916	-25.468142	94.208667	0.166591	1.002436	0.205972	37.448112	-3.860789	-5.850804	20.828455	0.363525	40.362909	0.907735	0.000000	36.324033	5.715423	15.439209	15.255031	0.266251	32.095827	-13.462234	0.000000	0.501971	0.415656	-0.999224	0.932211	0.552822	-1.061675	0.824689	1.010625	-1.061675	0.573703	1.010625	-0.874321	0.466131	0.847605	-0.811869	0.286826	0.643851	-0.749418	3.585532	4.701980	-5.557384	0.000000	0.000000	28.305293	-6.448032	1.076118	12.664107	-10.395905	30.906060	38.530487	87.249658	-11.231439	6.968064	45.340345	-18.549911	38.317309	49.540550	89.186994	-3.098652	9.171093
2.400000	-0.073580	-25.851303	94.480339	0.166004	1.001769	0.206309	37.418937	-3.754250	-6.381862	20.184901	0.352293	39.930393	1.019536	0.000000	36.678873	5.730956	16.705358	15.207682	0.265424	31.618505	-15.068801	0.000000	0.519188	0.473491	-0.988609	0.964184	0.629743	-1.050397	0.852974	1.151245	-1.050397	0.593380	1.151245	-0.865033	0.482118	0.965542	-0.803245	0.296664	0.733437	-0.741457	3.708508	5.356222	-5.498345	0.000000	0.000000	28.340687	-7.059972	0.486820	12.528262	-10.583631	30.278851	38.685791	87.102972	-11.302691	6.530109	46.290614	-18.063528	40.028156	48.404341	89.176281	-3.916828	7.748645
